<svg id="my-svg" width="100%" xmlns="http://www.w3.org/2000/svg" xmlns:xlink="http://www.w3.org/1999/xlink" class="flowchart" style="max-width: 2093.85px; background-color: transparent;" viewBox="0 0 2093.85498046875 480.74609375" role="graphics-document document" aria-roledescription="flowchart-v2"><style>#my-svg{font-family:"trebuchet ms",verdana,arial,sans-serif;font-size:16px;fill:#333;}@keyframes edge-animation-frame{from{stroke-dashoffset:0;}}@keyframes dash{to{stroke-dashoffset:0;}}#my-svg .edge-animation-slow{stroke-dasharray:9,5!important;stroke-dashoffset:900;animation:dash 50s linear infinite;stroke-linecap:round;}#my-svg .edge-animation-fast{stroke-dasharray:9,5!important;stroke-dashoffset:900;animation:dash 20s linear infinite;stroke-linecap:round;}#my-svg .error-icon{fill:#552222;}#my-svg .error-text{fill:#552222;stroke:#552222;}#my-svg .edge-thickness-normal{stroke-width:1px;}#my-svg .edge-thickness-thick{stroke-width:3.5px;}#my-svg .edge-pattern-solid{stroke-dasharray:0;}#my-svg .edge-thickness-invisible{stroke-width:0;fill:none;}#my-svg .edge-pattern-dashed{stroke-dasharray:3;}#my-svg .edge-pattern-dotted{stroke-dasharray:2;}#my-svg .marker{fill:#333333;stroke:#333333;}#my-svg .marker.cross{stroke:#333333;}#my-svg svg{font-family:"trebuchet ms",verdana,arial,sans-serif;font-size:16px;}#my-svg p{margin:0;}#my-svg .label{font-family:"trebuchet ms",verdana,arial,sans-serif;color:#333;}#my-svg .cluster-label text{fill:#333;}#my-svg .cluster-label span{color:#333;}#my-svg .cluster-label span p{background-color:transparent;}#my-svg .label text,#my-svg span{fill:#333;color:#333;}#my-svg .node rect,#my-svg .node circle,#my-svg .node ellipse,#my-svg .node polygon,#my-svg .node path{fill:#ECECFF;stroke:#9370DB;stroke-width:1px;}#my-svg .rough-node .label text,#my-svg .node .label text,#my-svg .image-shape .label,#my-svg .icon-shape .label{text-anchor:middle;}#my-svg .node .katex path{fill:#000;stroke:#000;stroke-width:1px;}#my-svg .rough-node .label,#my-svg .node .label,#my-svg .image-shape .label,#my-svg .icon-shape .label{text-align:center;}#my-svg .node.clickable{cursor:pointer;}#my-svg .root .anchor path{fill:#333333!important;stroke-width:0;stroke:#333333;}#my-svg .arrowheadPath{fill:#333333;}#my-svg .edgePath .path{stroke:#333333;stroke-width:1px;}#my-svg .flowchart-link{stroke:#333333;fill:none;}#my-svg .edgeLabel{background-color:rgba(232,232,232, 0.8);text-align:center;}#my-svg .edgeLabel p{background-color:rgba(232,232,232, 0.8);}#my-svg .edgeLabel rect{opacity:0.5;background-color:rgba(232,232,232, 0.8);fill:rgba(232,232,232, 0.8);}#my-svg .labelBkg{background-color:rgba(232, 232, 232, 0.5);}#my-svg .cluster rect{fill:#ffffde;stroke:#aaaa33;stroke-width:1px;}#my-svg .cluster text{fill:#333;}#my-svg .cluster span{color:#333;}#my-svg div.mermaidTooltip{position:absolute;text-align:center;max-width:200px;padding:2px;font-family:"trebuchet ms",verdana,arial,sans-serif;font-size:12px;background:hsl(80, 100%, 96.2745098039%);border:1px solid #aaaa33;border-radius:2px;pointer-events:none;z-index:100;}#my-svg .flowchartTitleText{text-anchor:middle;font-size:18px;fill:#333;}#my-svg rect.text{fill:none;stroke-width:0;}#my-svg .icon-shape,#my-svg .image-shape{background-color:rgba(232,232,232, 0.8);text-align:center;}#my-svg .icon-shape p,#my-svg .image-shape p{background-color:rgba(232,232,232, 0.8);padding:2px;}#my-svg .icon-shape .label rect,#my-svg .image-shape .label rect{opacity:0.5;background-color:rgba(232,232,232, 0.8);fill:rgba(232,232,232, 0.8);}#my-svg .label-icon{display:inline-block;height:1em;overflow:visible;vertical-align:-0.125em;}#my-svg .node .label-icon path{fill:currentColor;stroke:revert;stroke-width:revert;}#my-svg .node .neo-node{stroke:#9370DB;}#my-svg [data-look="neo"].node rect,#my-svg [data-look="neo"].cluster rect,#my-svg [data-look="neo"].node polygon{stroke:#9370DB;filter:drop-shadow(1px 2px 2px rgba(185, 185, 185, 1));}#my-svg [data-look="neo"].node path{stroke:#9370DB;stroke-width:1px;}#my-svg [data-look="neo"].node .outer-path{filter:drop-shadow(1px 2px 2px rgba(185, 185, 185, 1));}#my-svg [data-look="neo"].node .neo-line path{stroke:#9370DB;filter:none;}#my-svg [data-look="neo"].node circle{stroke:#9370DB;filter:drop-shadow(1px 2px 2px rgba(185, 185, 185, 1));}#my-svg [data-look="neo"].node circle .state-start{fill:#000000;}#my-svg [data-look="neo"].icon-shape .icon{fill:#9370DB;filter:drop-shadow(1px 2px 2px rgba(185, 185, 185, 1));}#my-svg [data-look="neo"].icon-shape .icon-neo path{stroke:#9370DB;filter:drop-shadow(1px 2px 2px rgba(185, 185, 185, 1));}#my-svg :root{--mermaid-font-family:"trebuchet ms",verdana,arial,sans-serif;}#my-svg .ok&gt;*{fill:rgb(213, 245, 227)!important;stroke:rgb(39, 174, 96)!important;color:rgb(20, 90, 50)!important;}#my-svg .ok span{fill:rgb(213, 245, 227)!important;stroke:rgb(39, 174, 96)!important;color:rgb(20, 90, 50)!important;}#my-svg .ok tspan{fill:rgb(20, 90, 50)!important;}</style><g><marker id="my-svg_flowchart-v2-pointEnd" class="marker flowchart-v2" viewBox="0 0 10 10" refX="5" refY="5" markerUnits="userSpaceOnUse" markerWidth="8" markerHeight="8" orient="auto"><path d="M 0 0 L 10 5 L 0 10 z" class="arrowMarkerPath" style="stroke-width: 1; stroke-dasharray: 1, 0;"/></marker><marker id="my-svg_flowchart-v2-pointStart" class="marker flowchart-v2" viewBox="0 0 10 10" refX="4.5" refY="5" markerUnits="userSpaceOnUse" markerWidth="8" markerHeight="8" orient="auto"><path d="M 0 5 L 10 10 L 10 0 z" class="arrowMarkerPath" style="stroke-width: 1; stroke-dasharray: 1, 0;"/></marker><marker id="my-svg_flowchart-v2-pointEnd-margin" class="marker flowchart-v2" viewBox="0 0 11.5 14" refX="11.5" refY="7" markerUnits="userSpaceOnUse" markerWidth="10.5" markerHeight="14" orient="auto"><path d="M 0 0 L 11.5 7 L 0 14 z" class="arrowMarkerPath" style="stroke-width: 0; stroke-dasharray: 1, 0;"/></marker><marker id="my-svg_flowchart-v2-pointStart-margin" class="marker flowchart-v2" viewBox="0 0 11.5 14" refX="1" refY="7" markerUnits="userSpaceOnUse" markerWidth="11.5" markerHeight="14" orient="auto"><polygon points="0,7 11.5,14 11.5,0" class="arrowMarkerPath" style="stroke-width: 0; stroke-dasharray: 1, 0;"/></marker><marker id="my-svg_flowchart-v2-circleEnd" class="marker flowchart-v2" viewBox="0 0 10 10" refX="11" refY="5" markerUnits="userSpaceOnUse" markerWidth="11" markerHeight="11" orient="auto"><circle cx="5" cy="5" r="5" class="arrowMarkerPath" style="stroke-width: 1; stroke-dasharray: 1, 0;"/></marker><marker id="my-svg_flowchart-v2-circleStart" class="marker flowchart-v2" viewBox="0 0 10 10" refX="-1" refY="5" markerUnits="userSpaceOnUse" markerWidth="11" markerHeight="11" orient="auto"><circle cx="5" cy="5" r="5" class="arrowMarkerPath" style="stroke-width: 1; stroke-dasharray: 1, 0;"/></marker><marker id="my-svg_flowchart-v2-circleEnd-margin" class="marker flowchart-v2" viewBox="0 0 10 10" refY="5" refX="12.25" markerUnits="userSpaceOnUse" markerWidth="14" markerHeight="14" orient="auto"><circle cx="5" cy="5" r="5" class="arrowMarkerPath" style="stroke-width: 0; stroke-dasharray: 1, 0;"/></marker><marker id="my-svg_flowchart-v2-circleStart-margin" class="marker flowchart-v2" viewBox="0 0 10 10" refX="-2" refY="5" markerUnits="userSpaceOnUse" markerWidth="14" markerHeight="14" orient="auto"><circle cx="5" cy="5" r="5" class="arrowMarkerPath" style="stroke-width: 0; stroke-dasharray: 1, 0;"/></marker><marker id="my-svg_flowchart-v2-crossEnd" class="marker cross flowchart-v2" viewBox="0 0 11 11" refX="12" refY="5.2" markerUnits="userSpaceOnUse" markerWidth="11" markerHeight="11" orient="auto"><path d="M 1,1 l 9,9 M 10,1 l -9,9" class="arrowMarkerPath" style="stroke-width: 2; stroke-dasharray: 1, 0;"/></marker><marker id="my-svg_flowchart-v2-crossStart" class="marker cross flowchart-v2" viewBox="0 0 11 11" refX="-1" refY="5.2" markerUnits="userSpaceOnUse" markerWidth="11" markerHeight="11" orient="auto"><path d="M 1,1 l 9,9 M 10,1 l -9,9" class="arrowMarkerPath" style="stroke-width: 2; stroke-dasharray: 1, 0;"/></marker><marker id="my-svg_flowchart-v2-crossEnd-margin" class="marker cross flowchart-v2" viewBox="0 0 15 15" refX="17.7" refY="7.5" markerUnits="userSpaceOnUse" markerWidth="12" markerHeight="12" orient="auto"><path d="M 1,1 L 14,14 M 1,14 L 14,1" class="arrowMarkerPath" style="stroke-width: 2.5;"/></marker><marker id="my-svg_flowchart-v2-crossStart-margin" class="marker cross flowchart-v2" viewBox="0 0 15 15" refX="-3.5" refY="7.5" markerUnits="userSpaceOnUse" markerWidth="12" markerHeight="12" orient="auto"><path d="M 1,1 L 14,14 M 1,14 L 14,1" class="arrowMarkerPath" style="stroke-width: 2.5; stroke-dasharray: 1, 0;"/></marker><g class="root"><g class="clusters"/><g class="edgePaths"><path d="M136.949,191.473L141.032,191.389C145.115,191.306,153.282,191.139,160.865,191.056C168.449,190.973,175.449,190.973,178.949,190.973L182.449,190.973" id="my-svg-L_REQ_GOL_0" class="edge-thickness-normal edge-pattern-solid edge-thickness-normal edge-pattern-solid flowchart-link" style=";" data-edge="true" data-et="edge" data-id="L_REQ_GOL_0" data-points="W3sieCI6MTM2Ljk0ODcxMjQzMTgyNjcyLCJ5IjoxOTEuNDcyNjU2MjQ5OTk5OTd9LHsieCI6MTYxLjQ0ODcxNTIwOTk2MDk0LCJ5IjoxOTAuOTcyNjU2MjV9LHsieCI6MTg2LjQ0ODcxNTIwOTk2MDk0LCJ5IjoxOTAuOTcyNjU2MjV9XQ==" data-look="classic" marker-end="url(#my-svg_flowchart-v2-pointEnd)"/><path d="M435.558,190.973L439.725,190.973C443.891,190.973,452.225,190.973,459.891,190.973C467.558,190.973,474.558,190.973,478.058,190.973L481.558,190.973" id="my-svg-L_GOL_HIT_0" class="edge-thickness-normal edge-pattern-solid edge-thickness-normal edge-pattern-solid flowchart-link" style=";" data-edge="true" data-et="edge" data-id="L_GOL_HIT_0" data-points="W3sieCI6NDM1LjU1ODA5MDIwOTk2MDk0LCJ5IjoxOTAuOTcyNjU2MjV9LHsieCI6NDYwLjU1ODA5MDIwOTk2MDk0LCJ5IjoxOTAuOTcyNjU2MjV9LHsieCI6NDg1LjU1ODA5MDIwOTk2MDk0LCJ5IjoxOTAuOTcyNjU2MjV9XQ==" data-look="classic" marker-end="url(#my-svg_flowchart-v2-pointEnd)"/><path d="M589.393,146.589L603.524,125.491C617.654,104.393,645.915,62.196,683.878,41.098C721.842,20,769.509,20,816.753,20C863.998,20,910.821,20,961.687,20C1012.553,20,1067.462,20,1122.253,20C1177.045,20,1231.72,20,1275.828,20C1319.936,20,1353.477,20,1387.136,20C1420.795,20,1454.571,20,1499.205,20C1543.839,20,1599.332,20,1654.824,20C1710.316,20,1765.808,20,1811.662,32.451C1857.516,44.902,1893.732,69.804,1911.84,82.255L1929.948,94.706" id="my-svg-L_HIT_RET_0" class="edge-thickness-normal edge-pattern-solid edge-thickness-normal edge-pattern-solid flowchart-link" style=";" data-edge="true" data-et="edge" data-id="L_HIT_RET_0" data-points="W3sieCI6NTg5LjM5MzE0OTk2MjIyODksInkiOjE0Ni41ODg5NjYwMDIyNjc5NH0seyJ4Ijo2NzQuMTc1Mjc3NzA5OTYwOSwieSI6MjB9LHsieCI6ODE3LjE3NTI3NzcwOTk2MDksInkiOjIwfSx7IngiOjk1Ny42NDQwMjc3MDk5NjA5LCJ5IjoyMH0seyJ4IjoxMTIyLjM3MDU5MDIwOTk2MSwieSI6MjB9LHsieCI6MTI4Ni4zOTQwMjc3MDk5NjEsInkiOjIwfSx7IngiOjEzODcuMDE5MDI3NzA5OTYxLCJ5IjoyMH0seyJ4IjoxNDg4LjM0NzE1MjcwOTk2MSwieSI6MjB9LHsieCI6MTY1NC44MjM3MTUyMDk5NjEsInkiOjIwfSx7IngiOjE4MjEuMzAwMjc3NzA5OTYxLCJ5IjoyMH0seyJ4IjoxOTMzLjI0NDIwNTQwNDE5NzYsInkiOjk2Ljk3MjY1NjI1fV0=" data-look="classic" marker-end="url(#my-svg_flowchart-v2-pointEnd)"/><path d="M605.962,218.788L617.33,225.619C628.699,232.45,651.437,246.112,668.873,252.943C686.308,259.773,698.441,259.773,704.507,259.773L710.574,259.773" id="my-svg-L_HIT_SF_0" class="edge-thickness-normal edge-pattern-solid edge-thickness-normal edge-pattern-solid flowchart-link" style=";" data-edge="true" data-et="edge" data-id="L_HIT_SF_0" data-points="W3sieCI6NjA1Ljk2MTU0MzY0NTYxNjMsInkiOjIxOC43ODc5NTI4MTQzNDQ2fSx7IngiOjY3NC4xNzUyNzc3MDk5NjA5LCJ5IjoyNTkuNzczNDM3NX0seyJ4Ijo3MTQuNTczNzE1MjA5OTYwOSwieSI6MjU5Ljc3MzQzNzV9XQ==" data-look="classic" marker-end="url(#my-svg_flowchart-v2-pointEnd)"/><path d="M869.69,209.687L884.349,195.706C899.008,181.725,928.326,153.763,970.44,139.782C1012.553,125.801,1067.462,125.801,1122.253,125.801C1177.045,125.801,1231.72,125.801,1275.828,125.801C1319.936,125.801,1353.477,125.801,1387.136,125.801C1420.795,125.801,1454.571,125.801,1477.104,125.801C1499.636,125.801,1510.925,125.801,1516.57,125.801L1522.214,125.801" id="my-svg-L_SF_JOIN_0" class="edge-thickness-normal edge-pattern-solid edge-thickness-normal edge-pattern-solid flowchart-link" style=";" data-edge="true" data-et="edge" data-id="L_SF_JOIN_0" data-points="W3sieCI6ODY5LjY5MDM2MDcyNjU5OTgsInkiOjIwOS42ODY5NTgwMTY2Mzg5M30seyJ4Ijo5NTcuNjQ0MDI3NzA5OTYwOSwieSI6MTI1LjgwMDc4MTI1fSx7IngiOjExMjIuMzcwNTkwMjA5OTYxLCJ5IjoxMjUuODAwNzgxMjV9LHsieCI6MTI4Ni4zOTQwMjc3MDk5NjEsInkiOjEyNS44MDA3ODEyNX0seyJ4IjoxMzg3LjAxOTAyNzcwOTk2MSwieSI6MTI1LjgwMDc4MTI1fSx7IngiOjE0ODguMzQ3MTUyNzA5OTYxLCJ5IjoxMjUuODAwNzgxMjV9LHsieCI6MTUyNi4yMTQzNDAyMDk5NjEsInkiOjEyNS44MDA3ODEyNX1d" data-look="classic" marker-end="url(#my-svg_flowchart-v2-pointEnd)"/><path d="M889.793,289.757L901.101,294.427C912.41,299.096,935.027,308.435,951.98,313.104C968.933,317.773,980.222,317.773,985.867,317.773L991.511,317.773" id="my-svg-L_SF_LOAD_0" class="edge-thickness-normal edge-pattern-solid edge-thickness-normal edge-pattern-solid flowchart-link" style=";" data-edge="true" data-et="edge" data-id="L_SF_LOAD_0" data-points="W3sieCI6ODg5Ljc5MjgyMTk0NTEyMDcsInkiOjI4OS43NTc0NTU3NjQ4NDAyfSx7IngiOjk1Ny42NDQwMjc3MDk5NjA5LCJ5IjozMTcuNzczNDM3NX0seyJ4Ijo5OTUuNTExMjE1MjA5OTYwOSwieSI6MzE3Ljc3MzQzNzV9XQ==" data-look="classic" marker-end="url(#my-svg_flowchart-v2-pointEnd)"/><path d="M1249.23,317.773L1255.424,317.773C1261.618,317.773,1274.006,317.773,1285.727,317.773C1297.449,317.773,1308.503,317.773,1314.031,317.773L1319.558,317.773" id="my-svg-L_LOAD_OKL_0" class="edge-thickness-normal edge-pattern-solid edge-thickness-normal edge-pattern-solid flowchart-link" style=";" data-edge="true" data-et="edge" data-id="L_LOAD_OKL_0" data-points="W3sieCI6MTI0OS4yMjk5NjUyMDk5NjEsInkiOjMxNy43NzM0Mzc1fSx7IngiOjEyODYuMzk0MDI3NzA5OTYxLCJ5IjozMTcuNzczNDM3NX0seyJ4IjoxMzIzLjU1ODA5MDIwOTk2MSwieSI6MzE3Ljc3MzQzNzV9XQ==" data-look="classic" marker-end="url(#my-svg_flowchart-v2-pointEnd)"/><path d="M1423.287,290.581L1434.131,282.451C1444.974,274.321,1466.661,258.061,1486.232,249.931C1505.803,241.801,1523.259,241.801,1531.986,241.801L1540.714,241.801" id="my-svg-L_OKL_SET_0" class="edge-thickness-normal edge-pattern-solid edge-thickness-normal edge-pattern-solid flowchart-link" style=";" data-edge="true" data-et="edge" data-id="L_OKL_SET_0" data-points="W3sieCI6MTQyMy4yODcyMTQyNDc0NDgsInkiOjI5MC41ODA2ODY1Mzc0ODcwNX0seyJ4IjoxNDg4LjM0NzE1MjcwOTk2MSwieSI6MjQxLjgwMDc4MTI1fSx7IngiOjE1NDQuNzE0MzQwMjA5OTYxLCJ5IjoyNDEuODAwNzgxMjV9XQ==" data-look="classic" marker-end="url(#my-svg_flowchart-v2-pointEnd)"/><path d="M1764.933,241.801L1774.328,241.801C1783.722,241.801,1802.511,241.801,1830.807,227.073C1859.102,212.344,1896.904,182.888,1915.805,168.16L1934.706,153.431" id="my-svg-L_SET_RET_0" class="edge-thickness-normal edge-pattern-solid edge-thickness-normal edge-pattern-solid flowchart-link" style=";" data-edge="true" data-et="edge" data-id="L_SET_RET_0" data-points="W3sieCI6MTc2NC45MzMwOTAyMDk5NjEsInkiOjI0MS44MDA3ODEyNX0seyJ4IjoxODIxLjMwMDI3NzcwOTk2MSwieSI6MjQxLjgwMDc4MTI1fSx7IngiOjE5MzcuODYxNjMyOTI2NDQ0MSwieSI6MTUwLjk3MjY1NjI1fV0=" data-look="classic" marker-end="url(#my-svg_flowchart-v2-pointEnd)"/><path d="M1423.287,344.966L1434.131,353.096C1444.974,361.226,1466.661,377.486,1492.092,385.616C1517.524,393.746,1546.701,393.746,1561.29,393.746L1575.878,393.746" id="my-svg-L_OKL_STALE_0" class="edge-thickness-normal edge-pattern-solid edge-thickness-normal edge-pattern-solid flowchart-link" style=";" data-edge="true" data-et="edge" data-id="L_OKL_STALE_0" data-points="W3sieCI6MTQyMy4yODcyMTQyNDc0NDgsInkiOjM0NC45NjYxODg0NjI1MTI5NX0seyJ4IjoxNDg4LjM0NzE1MjcwOTk2MSwieSI6MzkzLjc0NjA5Mzc1fSx7IngiOjE1NzkuODc4NDAyNzA5OTYxLCJ5IjozOTMuNzQ2MDkzNzV9XQ==" data-look="classic" marker-end="url(#my-svg_flowchart-v2-pointEnd)"/><path d="M1711.931,375.908L1730.159,370.215C1748.388,364.521,1784.844,353.133,1808.717,347.44C1832.589,341.746,1843.878,341.746,1849.523,341.746L1855.167,341.746" id="my-svg-L_STALE_LAST_0" class="edge-thickness-normal edge-pattern-solid edge-thickness-normal edge-pattern-solid flowchart-link" style=";" data-edge="true" data-et="edge" data-id="L_STALE_LAST_0" data-points="W3sieCI6MTcxMS45MzExNTg5NDU0MzQsInkiOjM3NS45MDgyMjQ5ODU0NzI5fSx7IngiOjE4MjEuMzAwMjc3NzA5OTYxLCJ5IjozNDEuNzQ2MDkzNzV9LHsieCI6MTg1OS4xNjc0NjUyMDk5NjEsInkiOjM0MS43NDYwOTM3NX1d" data-look="classic" marker-end="url(#my-svg_flowchart-v2-pointEnd)"/><path d="M1711.931,411.584L1730.159,417.278C1748.388,422.971,1784.844,434.359,1814.937,440.052C1845.029,445.746,1868.759,445.746,1880.623,445.746L1892.488,445.746" id="my-svg-L_STALE_ERRO_0" class="edge-thickness-normal edge-pattern-solid edge-thickness-normal edge-pattern-solid flowchart-link" style=";" data-edge="true" data-et="edge" data-id="L_STALE_ERRO_0" data-points="W3sieCI6MTcxMS45MzExNTg5NDU0MzQsInkiOjQxMS41ODM5NjI1MTQ1MjcxfSx7IngiOjE4MjEuMzAwMjc3NzA5OTYxLCJ5Ijo0NDUuNzQ2MDkzNzV9LHsieCI6MTg5Ni40ODc3Nzc3MDk5NjEsInkiOjQ0NS43NDYwOTM3NX1d" data-look="classic" marker-end="url(#my-svg_flowchart-v2-pointEnd)"/><path d="M1783.433,125.801L1789.744,125.801C1796.055,125.801,1808.678,125.801,1820.668,125.732C1832.657,125.663,1844.014,125.526,1849.692,125.458L1855.371,125.389" id="my-svg-L_JOIN_RET_0" class="edge-thickness-normal edge-pattern-solid edge-thickness-normal edge-pattern-solid flowchart-link" style=";" data-edge="true" data-et="edge" data-id="L_JOIN_RET_0" data-points="W3sieCI6MTc4My40MzMwOTAyMDk5NjEsInkiOjEyNS44MDA3ODEyNX0seyJ4IjoxODIxLjMwMDI3NzcwOTk2MSwieSI6MTI1LjgwMDc4MTI1fSx7IngiOjE4NTkuMzcwNTkwMjA5OTYxLCJ5IjoxMjUuMzQwNTE1MDA3NDI3MDJ9XQ==" data-look="classic" marker-end="url(#my-svg_flowchart-v2-pointEnd)"/></g><g class="edgeLabels"><g class="edgeLabel"><g class="label" data-id="L_REQ_GOL_0" transform="translate(0, 0)"><foreignObject width="0" height="0"><div xmlns="http://www.w3.org/1999/xhtml" class="labelBkg" style="display: table-cell; white-space: nowrap; line-height: 1.5; max-width: 200px; text-align: center;"><span class="edgeLabel"></span></div></foreignObject></g></g><g class="edgeLabel"><g class="label" data-id="L_GOL_HIT_0" transform="translate(0, 0)"><foreignObject width="0" height="0"><div xmlns="http://www.w3.org/1999/xhtml" class="labelBkg" style="display: table-cell; white-space: nowrap; line-height: 1.5; max-width: 200px; text-align: center;"><span class="edgeLabel"></span></div></foreignObject></g></g><g class="edgeLabel" transform="translate(1286.394027709961, 20)"><g class="label" data-id="L_HIT_RET_0" transform="translate(-12.1640625, -12)"><foreignObject width="24.328125" height="24"><div xmlns="http://www.w3.org/1999/xhtml" class="labelBkg" style="display: table-cell; white-space: nowrap; line-height: 1.5; max-width: 200px; text-align: center;"><span class="edgeLabel"><p>sim</p></span></div></foreignObject></g></g><g class="edgeLabel" transform="translate(674.1752777099609, 259.7734375)"><g class="label" data-id="L_HIT_SF_0" transform="translate(-15.3984375, -12)"><foreignObject width="30.796875" height="24"><div xmlns="http://www.w3.org/1999/xhtml" class="labelBkg" style="display: table-cell; white-space: nowrap; line-height: 1.5; max-width: 200px; text-align: center;"><span class="edgeLabel"><p>miss</p></span></div></foreignObject></g></g><g class="edgeLabel" transform="translate(1286.394027709961, 125.80078125)"><g class="label" data-id="L_SF_JOIN_0" transform="translate(-12.1640625, -12)"><foreignObject width="24.328125" height="24"><div xmlns="http://www.w3.org/1999/xhtml" class="labelBkg" style="display: table-cell; white-space: nowrap; line-height: 1.5; max-width: 200px; text-align: center;"><span class="edgeLabel"><p>sim</p></span></div></foreignObject></g></g><g class="edgeLabel" transform="translate(957.6440277099609, 317.7734375)"><g class="label" data-id="L_SF_LOAD_0" transform="translate(-12.8671875, -12)"><foreignObject width="25.734375" height="24"><div xmlns="http://www.w3.org/1999/xhtml" class="labelBkg" style="display: table-cell; white-space: nowrap; line-height: 1.5; max-width: 200px; text-align: center;"><span class="edgeLabel"><p>não</p></span></div></foreignObject></g></g><g class="edgeLabel"><g class="label" data-id="L_LOAD_OKL_0" transform="translate(0, 0)"><foreignObject width="0" height="0"><div xmlns="http://www.w3.org/1999/xhtml" class="labelBkg" style="display: table-cell; white-space: nowrap; line-height: 1.5; max-width: 200px; text-align: center;"><span class="edgeLabel"></span></div></foreignObject></g></g><g class="edgeLabel" transform="translate(1488.347152709961, 241.80078125)"><g class="label" data-id="L_OKL_SET_0" transform="translate(-12.1640625, -12)"><foreignObject width="24.328125" height="24"><div xmlns="http://www.w3.org/1999/xhtml" class="labelBkg" style="display: table-cell; white-space: nowrap; line-height: 1.5; max-width: 200px; text-align: center;"><span class="edgeLabel"><p>sim</p></span></div></foreignObject></g></g><g class="edgeLabel"><g class="label" data-id="L_SET_RET_0" transform="translate(0, 0)"><foreignObject width="0" height="0"><div xmlns="http://www.w3.org/1999/xhtml" class="labelBkg" style="display: table-cell; white-space: nowrap; line-height: 1.5; max-width: 200px; text-align: center;"><span class="edgeLabel"></span></div></foreignObject></g></g><g class="edgeLabel" transform="translate(1488.347152709961, 393.74609375)"><g class="label" data-id="L_OKL_STALE_0" transform="translate(-12.8671875, -12)"><foreignObject width="25.734375" height="24"><div xmlns="http://www.w3.org/1999/xhtml" class="labelBkg" style="display: table-cell; white-space: nowrap; line-height: 1.5; max-width: 200px; text-align: center;"><span class="edgeLabel"><p>não</p></span></div></foreignObject></g></g><g class="edgeLabel" transform="translate(1821.300277709961, 341.74609375)"><g class="label" data-id="L_STALE_LAST_0" transform="translate(-12.1640625, -12)"><foreignObject width="24.328125" height="24"><div xmlns="http://www.w3.org/1999/xhtml" class="labelBkg" style="display: table-cell; white-space: nowrap; line-height: 1.5; max-width: 200px; text-align: center;"><span class="edgeLabel"><p>sim</p></span></div></foreignObject></g></g><g class="edgeLabel" transform="translate(1821.300277709961, 445.74609375)"><g class="label" data-id="L_STALE_ERRO_0" transform="translate(-12.8671875, -12)"><foreignObject width="25.734375" height="24"><div xmlns="http://www.w3.org/1999/xhtml" class="labelBkg" style="display: table-cell; white-space: nowrap; line-height: 1.5; max-width: 200px; text-align: center;"><span class="edgeLabel"><p>não</p></span></div></foreignObject></g></g><g class="edgeLabel"><g class="label" data-id="L_JOIN_RET_0" transform="translate(0, 0)"><foreignObject width="0" height="0"><div xmlns="http://www.w3.org/1999/xhtml" class="labelBkg" style="display: table-cell; white-space: nowrap; line-height: 1.5; max-width: 200px; text-align: center;"><span class="edgeLabel"></span></div></foreignObject></g></g></g><g class="nodes"><g class="node default" id="my-svg-flowchart-REQ-0" data-look="classic" transform="translate(72.22435760498047, 190.97265625)"><g class="basic label-container outer-path"><path d="M-44.734375 -19.5 C-25.663658375924758 -19.5, -6.592941751849516 -19.5, 44.734375 -19.5 C44.734375 -19.5, 44.734375 -19.5, 44.734375 -19.5 C45.088857491454 -19.488632436457383, 45.44333998290799 -19.477264872914766, 45.9837442896239 -19.45993515863156 C46.44785815315715 -19.415162652395093, 46.9119720166904 -19.370390146158623, 47.227979652847864 -19.3399052695533 C47.47616767438203 -19.29978015495851, 47.7243556959162 -19.259655040363718, 48.46196825967676 -19.140403561325776 C48.77786090279649 -19.06830312692584, 49.09375354591623 -18.996202692525905, 49.68063938623539 -18.862249829261074 C50.095026680775334 -18.739261855404916, 50.509413975315276 -18.616273881548757, 50.878985251460605 -18.50658706670804 C51.285974160994265 -18.356811385835414, 51.69296307052793 -18.207035704962788, 52.0520815951478 -18.074876768247425 C52.390625899529134 -17.925013247257784, 52.72917020391047 -17.77514972626814, 53.19510791279238 -17.568892924097174 C53.626930357801406 -17.343611431131443, 54.05875280281043 -17.11832993816571, 54.30336726407678 -16.990714730406097 C54.5218806801434 -16.85825061345915, 54.740394096210004 -16.7257864965122, 55.3723055736057 -16.342718045390892 C55.588450169352306 -16.191944932146807, 55.804594765098905 -16.041171818902725, 56.39753034457871 -15.627565626425154 C56.63388444756121 -15.439079518943444, 56.8702385505437 -15.250593411461733, 57.374828708501866 -14.848196188198123 C57.70110954078246 -14.551876569238644, 58.02739037306306 -14.255556950279164, 58.30018473676799 -14.007812326905688 C58.56020043079149 -13.739324775140926, 58.820216124815 -13.470837223376163, 59.16979594296865 -13.10986736009568 C59.41464433085924 -12.82225451141144, 59.65949271874983 -12.5346416627272, 59.98008890812658 -12.158051136245305 C60.18140925139701 -11.888300216923513, 60.382729594667424 -11.618549297601723, 60.727733964640635 -11.156274872382312 C60.93716351755584 -10.8345348393953, 61.14659307047104 -10.512794806408289, 61.40965887860425 -10.108655082055241 C61.620289033456515 -9.734659913499069, 61.83091918830878 -9.360664744942898, 62.023061474273504 -9.019496659696287 C62.16136313691036 -8.732310298049331, 62.29966479954721 -8.445123936402375, 62.56542114880834 -7.893275190886684 C62.678376054170876 -7.614274390806697, 62.791330959533404 -7.335273590726711, 63.034509229970325 -6.734618561215508 C63.14653602184631 -6.397211713130391, 63.258562813722286 -6.059804865045274, 63.42839813421488 -5.548287939305138 C63.54750758490309 -5.094071981468537, 63.666617035591294 -4.6398560236319355, 63.74546928754556 -4.339158212148133 C63.81682386397371 -3.97276754298465, 63.88817844040186 -3.606376873821166, 63.984419776581774 -3.1121979531509023 C64.02985435974932 -2.759816298176711, 64.07528894291686 -2.4074346432025204, 64.14426770250937 -1.872449005199798 C64.16944313277038 -1.480321357642958, 64.1946185630314 -1.088193710086118, 64.22435621591342 -0.6250057626472757 C64.22435621591342 -0.19642462528529897, 64.22435621591342 0.23215651207667776, 64.22435621591342 0.625005762647271 C64.19869460010719 1.0247061425126207, 64.17303298430097 1.4244065223779703, 64.14426770250937 1.8724490051997846 C64.1033114974002 2.1900972443089883, 64.06235529229103 2.5077454834181925, 63.984419776581774 3.1121979531508885 C63.91180289934177 3.4850702701958802, 63.839186022101764 3.8579425872408715, 63.74546928754556 4.339158212148129 C63.66524557907497 4.6450859817216825, 63.58502187060438 4.951013751295237, 63.42839813421489 5.548287939305125 C63.34758012000883 5.791698921491876, 63.266762105802776 6.035109903678627, 63.034509229970325 6.734618561215495 C62.87449719253151 7.1298513873116605, 62.71448515509269 7.525084213407826, 62.56542114880834 7.893275190886679 C62.35656802567021 8.32696316982397, 62.14771490253208 8.76065114876126, 62.023061474273504 9.019496659696284 C61.78117043211309 9.448998699176165, 61.539279389952675 9.878500738656047, 61.40965887860425 10.108655082055236 C61.19729195888186 10.434907699251509, 60.98492503915948 10.761160316447782, 60.72773396464064 11.156274872382301 C60.52989124080166 11.42136609848361, 60.33204851696268 11.686457324584916, 59.98008890812658 12.158051136245302 C59.682321175559025 12.507826058383126, 59.38455344299147 12.85760098052095, 59.16979594296866 13.10986736009567 C58.90219313586817 13.386189229025991, 58.63459032876767 13.662511097956312, 58.30018473676799 14.007812326905684 C58.0963797667946 14.192902608251504, 57.89257479682121 14.377992889597325, 57.37482870850189 14.848196188198111 C57.01431396671745 15.135697101071006, 56.653799224933024 15.4231980139439, 56.39753034457871 15.627565626425152 C56.02508668079976 15.887366203450998, 55.652643017020814 16.147166780476844, 55.37230557360571 16.34271804539089 C54.978047054957194 16.581719876315848, 54.583788536308674 16.820721707240807, 54.30336726407678 16.990714730406093 C54.00872262964512 17.144430647460194, 53.714077995213465 17.298146564514298, 53.19510791279239 17.56889292409717 C52.81275524992716 17.73814910585885, 52.430402587061934 17.907405287620524, 52.052081595147804 18.07487676824742 C51.62098122238447 18.233525690472487, 51.18988084962115 18.392174612697552, 50.87898525146062 18.506587066708033 C50.51555947837645 18.614449928498605, 50.152133705292286 18.722312790289173, 49.68063938623541 18.86224982926107 C49.24573939214811 18.961512914923812, 48.81083939806081 19.060776000586554, 48.461968259676766 19.140403561325773 C48.209447776377765 19.18122911473996, 47.956927293078756 19.222054668154147, 47.22797965284788 19.3399052695533 C46.9784946128772 19.36397279130961, 46.72900957290652 19.388040313065922, 45.9837442896239 19.45993515863156 C45.6279128448809 19.471345980480578, 45.2720814001379 19.482756802329593, 44.73437500000001 19.5 C44.73437500000001 19.5, 44.734375 19.5, 44.734375 19.5 C20.539923932405426 19.5, -3.6545271351891486 19.5, -44.73437499999999 19.5 C-45.0960163158103 19.48840286689408, -45.45765763162061 19.476805733788165, -45.98374428962389 19.45993515863156 C-46.44946268582317 19.415007865058534, -46.91518108202244 19.370080571485506, -47.22797965284787 19.3399052695533 C-47.66329120837329 19.26952747314748, -48.09860276389871 19.199149676741662, -48.46196825967676 19.140403561325773 C-48.81687327109568 19.059398808441042, -49.17177828251461 18.97839405555631, -49.680639386235384 18.862249829261074 C-49.92624539447726 18.78935525522713, -50.17185140271914 18.716460681193187, -50.87898525146059 18.506587066708043 C-51.304925203521854 18.349837227003743, -51.73086515558312 18.193087387299443, -52.0520815951478 18.074876768247425 C-52.38757285893389 17.926364737764064, -52.72306412272 17.7778527072807, -53.19510791279238 17.568892924097174 C-53.44233890213111 17.439912675318165, -53.68956989146984 17.310932426539157, -54.30336726407678 16.990714730406097 C-54.554439276688505 16.83851340089795, -54.805511289300235 16.6863120713898, -55.372305573605686 16.3427180453909 C-55.66175760004321 16.14080884192436, -55.951209626480725 15.938899638457821, -56.39753034457871 15.627565626425156 C-56.67387983030275 15.407184265528894, -56.95022931602679 15.186802904632632, -57.374828708501866 14.848196188198125 C-57.61745635434515 14.62784817981898, -57.860084000188444 14.407500171439834, -58.300184736767974 14.007812326905697 C-58.62355826594817 13.67390260856665, -58.946931795128364 13.3399928902276, -59.169795942968655 13.109867360095677 C-59.442554843112006 12.7894692355662, -59.715313743255365 12.469071111036722, -59.980088908126575 12.158051136245307 C-60.2364263327385 11.814582340085117, -60.49276375735044 11.471113543924927, -60.727733964640635 11.156274872382316 C-60.95001660341162 10.814789047984016, -61.172299242182596 10.473303223585717, -61.40965887860425 10.108655082055249 C-61.54053087791411 9.876278595053638, -61.67140287722397 9.643902108052028, -62.023061474273504 9.019496659696289 C-62.22683241714029 8.596361936833688, -62.430603360007076 8.173227213971087, -62.56542114880834 7.893275190886686 C-62.70933570846171 7.537803446144144, -62.853250268115076 7.182331701401603, -63.034509229970325 6.73461856121551 C-63.14103908880275 6.413767599640234, -63.24756894763518 6.092916638064959, -63.42839813421488 5.5482879393051325 C-63.51736444840071 5.209020825070092, -63.60633076258654 4.8697537108350515, -63.74546928754556 4.339158212148136 C-63.817617785331294 3.968690924608793, -63.88976628311703 3.5982236370694505, -63.984419776581774 3.112197953150904 C-64.03307033432426 2.7348738344394583, -64.08172089206674 2.3575497157280125, -64.14426770250937 1.872449005199809 C-64.16504438002869 1.5488354822040358, -64.18582105754803 1.2252219592082625, -64.22435621591342 0.6250057626472781 C-64.22435621591342 0.2051455357792632, -64.22435621591342 -0.21471469108875174, -64.22435621591342 -0.6250057626472687 C-64.19275903621255 -1.117157341272561, -64.1611618565117 -1.6093089198978534, -64.14426770250937 -1.8724490051997822 C-64.08915906918648 -2.2998606828215094, -64.0340504358636 -2.7272723604432363, -63.984419776581774 -3.112197953150895 C-63.89490753289075 -3.571824406084931, -63.805395289199716 -4.031450859018967, -63.74546928754556 -4.339158212148126 C-63.64573936721246 -4.719471621599139, -63.54600944687935 -5.0997850310501525, -63.42839813421489 -5.548287939305123 C-63.33618126806785 -5.826030447377704, -63.243964401920806 -6.103772955450286, -63.03450922997033 -6.734618561215485 C-62.905266707320955 -7.05385009089363, -62.77602418467158 -7.373081620571776, -62.56542114880834 -7.893275190886676 C-62.39401687905827 -8.249199824486551, -62.22261260930821 -8.605124458086426, -62.023061474273504 -9.019496659696282 C-61.827120095230434 -9.367410419403386, -61.631178716187364 -9.715324179110493, -61.40965887860425 -10.108655082055243 C-61.171054370661636 -10.475215680536717, -60.93244986271903 -10.841776279018193, -60.72773396464064 -11.156274872382308 C-60.49244757308047 -11.47153720204171, -60.257161181520296 -11.78679953170111, -59.98008890812659 -12.158051136245302 C-59.74796154089245 -12.430721150219895, -59.51583417365831 -12.703391164194489, -59.16979594296866 -13.10986736009567 C-58.8353608731165 -13.4551990273479, -58.500925803264344 -13.800530694600132, -58.300184736767996 -14.007812326905677 C-57.95882335970312 -14.317827697628898, -57.61746198263823 -14.627843068352119, -57.37482870850189 -14.848196188198107 C-57.04413399188351 -15.11191642454527, -56.71343927526514 -15.375636660892434, -56.39753034457872 -15.627565626425149 C-56.125344706248725 -15.817430544997773, -55.85315906791874 -16.007295463570397, -55.372305573605715 -16.342718045390885 C-55.08279002925776 -16.518224069756805, -54.7932744849098 -16.693730094122724, -54.30336726407679 -16.99071473040609 C-53.97245587535909 -17.163350989941257, -53.64154448664138 -17.335987249476425, -53.19510791279239 -17.56889292409717 C-52.750416730434296 -17.765744519231863, -52.3057255480762 -17.962596114366555, -52.052081595147804 -18.07487676824742 C-51.59447248631682 -18.243281150389453, -51.13686337748583 -18.41168553253149, -50.87898525146062 -18.506587066708033 C-50.57916312589513 -18.595572699777417, -50.27934100032964 -18.6845583328468, -49.68063938623541 -18.862249829261067 C-49.29013299707798 -18.95138036429391, -48.89962660792055 -19.040510899326758, -48.461968259676766 -19.140403561325773 C-48.04550283923486 -19.20773446076525, -47.629037418792954 -19.275065360204724, -47.22797965284788 -19.3399052695533 C-46.82672219435118 -19.37861409399178, -46.425464735854476 -19.417322918430255, -45.9837442896239 -19.45993515863156 C-45.50316277026342 -19.47534647256227, -45.02258125090295 -19.490757786492978, -44.73437500000001 -19.5 C-44.73437500000001 -19.5, -44.73437500000001 -19.5, -44.734375 -19.5" stroke="none" stroke-width="0" fill="#ECECFF" style=""/><path d="M-44.734375 -19.5 C-10.629285361423563 -19.5, 23.475804277152875 -19.5, 44.734375 -19.5 M-44.734375 -19.5 C-15.24514537148454 -19.5, 14.24408425703092 -19.5, 44.734375 -19.5 M44.734375 -19.5 C44.734375 -19.5, 44.734375 -19.5, 44.734375 -19.5 M44.734375 -19.5 C44.734375 -19.5, 44.734375 -19.5, 44.734375 -19.5 M44.734375 -19.5 C45.111259339987086 -19.48791405277748, 45.48814367997417 -19.47582810555496, 45.9837442896239 -19.45993515863156 M44.734375 -19.5 C45.05214168395872 -19.489809840940772, 45.36990836791745 -19.479619681881545, 45.9837442896239 -19.45993515863156 M45.9837442896239 -19.45993515863156 C46.271997754790014 -19.432127693522496, 46.56025121995613 -19.404320228413432, 47.227979652847864 -19.3399052695533 M45.9837442896239 -19.45993515863156 C46.24540444250699 -19.434693118375304, 46.50706459539007 -19.409451078119044, 47.227979652847864 -19.3399052695533 M47.227979652847864 -19.3399052695533 C47.58352360350231 -19.282423680896006, 47.93906755415676 -19.224942092238713, 48.46196825967676 -19.140403561325776 M47.227979652847864 -19.3399052695533 C47.538400809112616 -19.289718784360435, 47.84882196537737 -19.23953229916757, 48.46196825967676 -19.140403561325776 M48.46196825967676 -19.140403561325776 C48.71653959737263 -19.082299314729923, 48.9711109350685 -19.024195068134066, 49.68063938623539 -18.862249829261074 M48.46196825967676 -19.140403561325776 C48.76753915606264 -19.07065899826215, 49.07311005244852 -19.000914435198524, 49.68063938623539 -18.862249829261074 M49.68063938623539 -18.862249829261074 C50.15856406666387 -18.720404292787745, 50.63648874709234 -18.57855875631441, 50.878985251460605 -18.50658706670804 M49.68063938623539 -18.862249829261074 C49.97988358319523 -18.773435722368237, 50.27912778015508 -18.6846216154754, 50.878985251460605 -18.50658706670804 M50.878985251460605 -18.50658706670804 C51.14508840439964 -18.408658646595896, 51.41119155733867 -18.31073022648375, 52.0520815951478 -18.074876768247425 M50.878985251460605 -18.50658706670804 C51.26441243632809 -18.364746299826965, 51.649839621195575 -18.22290553294589, 52.0520815951478 -18.074876768247425 M52.0520815951478 -18.074876768247425 C52.4722137667242 -17.88889671866862, 52.89234593830061 -17.70291666908981, 53.19510791279238 -17.568892924097174 M52.0520815951478 -18.074876768247425 C52.32736103297041 -17.953018726997744, 52.60264047079302 -17.83116068574806, 53.19510791279238 -17.568892924097174 M53.19510791279238 -17.568892924097174 C53.59827636914649 -17.358560198658957, 54.00144482550059 -17.148227473220743, 54.30336726407678 -16.990714730406097 M53.19510791279238 -17.568892924097174 C53.55099089412368 -17.383229000690566, 53.90687387545498 -17.197565077283954, 54.30336726407678 -16.990714730406097 M54.30336726407678 -16.990714730406097 C54.644161763080696 -16.78412310237915, 54.9849562620846 -16.577531474352206, 55.3723055736057 -16.342718045390892 M54.30336726407678 -16.990714730406097 C54.67436089015966 -16.76581621407411, 55.04535451624254 -16.540917697742124, 55.3723055736057 -16.342718045390892 M55.3723055736057 -16.342718045390892 C55.64067051219623 -16.155518281561093, 55.90903545078676 -15.968318517731293, 56.39753034457871 -15.627565626425154 M55.3723055736057 -16.342718045390892 C55.73039884088962 -16.092927683741326, 56.08849210817355 -15.843137322091762, 56.39753034457871 -15.627565626425154 M56.39753034457871 -15.627565626425154 C56.72910177678651 -15.36314623272581, 57.0606732089943 -15.098726839026467, 57.374828708501866 -14.848196188198123 M56.39753034457871 -15.627565626425154 C56.62383505187494 -15.44709364457759, 56.85013975917117 -15.266621662730026, 57.374828708501866 -14.848196188198123 M57.374828708501866 -14.848196188198123 C57.656628562839295 -14.59227301650444, 57.93842841717673 -14.336349844810755, 58.30018473676799 -14.007812326905688 M57.374828708501866 -14.848196188198123 C57.71401894071428 -14.540152593784569, 58.0532091729267 -14.232108999371015, 58.30018473676799 -14.007812326905688 M58.30018473676799 -14.007812326905688 C58.5132052594305 -13.78785114794648, 58.726225782093 -13.567889968987274, 59.16979594296865 -13.10986736009568 M58.30018473676799 -14.007812326905688 C58.53864234718327 -13.761585266417995, 58.77709995759856 -13.515358205930301, 59.16979594296865 -13.10986736009568 M59.16979594296865 -13.10986736009568 C59.46943009404882 -12.757900036570724, 59.76906424512899 -12.405932713045768, 59.98008890812658 -12.158051136245305 M59.16979594296865 -13.10986736009568 C59.40520626898884 -12.833340995925344, 59.640616595009035 -12.556814631755007, 59.98008890812658 -12.158051136245305 M59.98008890812658 -12.158051136245305 C60.183798219233296 -11.885099217662328, 60.38750753034001 -11.612147299079352, 60.727733964640635 -11.156274872382312 M59.98008890812658 -12.158051136245305 C60.26864850571137 -11.771407563801832, 60.557208103296155 -11.384763991358357, 60.727733964640635 -11.156274872382312 M60.727733964640635 -11.156274872382312 C60.868454861222155 -10.940089786381424, 61.00917575780368 -10.723904700380537, 61.40965887860425 -10.108655082055241 M60.727733964640635 -11.156274872382312 C60.92990457153196 -10.845686529787917, 61.13207517842328 -10.535098187193523, 61.40965887860425 -10.108655082055241 M61.40965887860425 -10.108655082055241 C61.563022234690884 -9.836342913599628, 61.71638559077753 -9.564030745144015, 62.023061474273504 -9.019496659696287 M61.40965887860425 -10.108655082055241 C61.57348470995503 -9.817765729327636, 61.73731054130582 -9.52687637660003, 62.023061474273504 -9.019496659696287 M62.023061474273504 -9.019496659696287 C62.204328605067694 -8.643091584106868, 62.38559573586189 -8.26668650851745, 62.56542114880834 -7.893275190886684 M62.023061474273504 -9.019496659696287 C62.174207275483106 -8.705639169482483, 62.3253530766927 -8.39178167926868, 62.56542114880834 -7.893275190886684 M62.56542114880834 -7.893275190886684 C62.67132917222942 -7.631680325444278, 62.7772371956505 -7.370085460001873, 63.034509229970325 -6.734618561215508 M62.56542114880834 -7.893275190886684 C62.70459438230066 -7.549514613429224, 62.84376761579299 -7.205754035971763, 63.034509229970325 -6.734618561215508 M63.034509229970325 -6.734618561215508 C63.1589664736224 -6.359773172904338, 63.28342371727447 -5.984927784593167, 63.42839813421488 -5.548287939305138 M63.034509229970325 -6.734618561215508 C63.17364320129359 -6.315569207577714, 63.31277717261684 -5.896519853939919, 63.42839813421488 -5.548287939305138 M63.42839813421488 -5.548287939305138 C63.49641144798929 -5.288923696726678, 63.56442476176369 -5.029559454148218, 63.74546928754556 -4.339158212148133 M63.42839813421488 -5.548287939305138 C63.5402802579008 -5.121632911671602, 63.65216238158671 -4.694977884038066, 63.74546928754556 -4.339158212148133 M63.74546928754556 -4.339158212148133 C63.80151555281019 -4.051372485396648, 63.85756181807481 -3.7635867586451637, 63.984419776581774 -3.1121979531509023 M63.74546928754556 -4.339158212148133 C63.827814484105204 -3.916333031477798, 63.910159680664854 -3.493507850807463, 63.984419776581774 -3.1121979531509023 M63.984419776581774 -3.1121979531509023 C64.04465185986554 -2.645049809372158, 64.10488394314932 -2.1779016655934136, 64.14426770250937 -1.872449005199798 M63.984419776581774 -3.1121979531509023 C64.04101227181256 -2.6732777355931066, 64.09760476704335 -2.2343575180353104, 64.14426770250937 -1.872449005199798 M64.14426770250937 -1.872449005199798 C64.16763513296935 -1.5084824139352584, 64.19100256342932 -1.1445158226707188, 64.22435621591342 -0.6250057626472757 M64.14426770250937 -1.872449005199798 C64.17509244988814 -1.3923286834871282, 64.20591719726691 -0.9122083617744584, 64.22435621591342 -0.6250057626472757 M64.22435621591342 -0.6250057626472757 C64.22435621591342 -0.3037626833784923, 64.22435621591342 0.017480395890291045, 64.22435621591342 0.625005762647271 M64.22435621591342 -0.6250057626472757 C64.22435621591342 -0.36518986593959846, 64.22435621591342 -0.10537396923192122, 64.22435621591342 0.625005762647271 M64.22435621591342 0.625005762647271 C64.19959537867308 1.010675789253667, 64.17483454143273 1.3963458158600632, 64.14426770250937 1.8724490051997846 M64.22435621591342 0.625005762647271 C64.19424539036231 1.0940061756266766, 64.1641345648112 1.5630065886060822, 64.14426770250937 1.8724490051997846 M64.14426770250937 1.8724490051997846 C64.08572205152362 2.326517513098854, 64.02717640053785 2.7805860209979234, 63.984419776581774 3.1121979531508885 M64.14426770250937 1.8724490051997846 C64.10590090707447 2.1700142942121845, 64.06753411163956 2.467579583224584, 63.984419776581774 3.1121979531508885 M63.984419776581774 3.1121979531508885 C63.89641858925502 3.5640654510162646, 63.80841740192826 4.015932948881641, 63.74546928754556 4.339158212148129 M63.984419776581774 3.1121979531508885 C63.922659166657695 3.4293256320015004, 63.86089855673362 3.746453310852112, 63.74546928754556 4.339158212148129 M63.74546928754556 4.339158212148129 C63.661240170108115 4.660360342067533, 63.57701105267067 4.981562471986937, 63.42839813421489 5.548287939305125 M63.74546928754556 4.339158212148129 C63.677737118112276 4.59745032950518, 63.610004948678984 4.855742446862232, 63.42839813421489 5.548287939305125 M63.42839813421489 5.548287939305125 C63.301866271114925 5.9293817508476225, 63.17533440801496 6.31047556239012, 63.034509229970325 6.734618561215495 M63.42839813421489 5.548287939305125 C63.28681174195311 5.974723594069531, 63.14522534969132 6.401159248833937, 63.034509229970325 6.734618561215495 M63.034509229970325 6.734618561215495 C62.84780556226375 7.195780230120582, 62.66110189455718 7.65694189902567, 62.56542114880834 7.893275190886679 M63.034509229970325 6.734618561215495 C62.914173286223985 7.031850668806155, 62.793837342477644 7.329082776396814, 62.56542114880834 7.893275190886679 M62.56542114880834 7.893275190886679 C62.36331091835311 8.312961408893132, 62.16120068789788 8.732647626899587, 62.023061474273504 9.019496659696284 M62.56542114880834 7.893275190886679 C62.38177840985819 8.274613267641815, 62.198135670908044 8.655951344396952, 62.023061474273504 9.019496659696284 M62.023061474273504 9.019496659696284 C61.810193966774996 9.397464474432374, 61.597326459276495 9.775432289168464, 61.40965887860425 10.108655082055236 M62.023061474273504 9.019496659696284 C61.854629899959846 9.318563975436517, 61.686198325646195 9.61763129117675, 61.40965887860425 10.108655082055236 M61.40965887860425 10.108655082055236 C61.20448555795599 10.423856399321824, 60.999312237307734 10.739057716588414, 60.72773396464064 11.156274872382301 M61.40965887860425 10.108655082055236 C61.26435708349017 10.331877658345626, 61.11905528837609 10.555100234636013, 60.72773396464064 11.156274872382301 M60.72773396464064 11.156274872382301 C60.44650628971841 11.533094336409848, 60.16527861479618 11.909913800437394, 59.98008890812658 12.158051136245302 M60.72773396464064 11.156274872382301 C60.479402041990696 11.489017025229668, 60.23107011934075 11.821759178077036, 59.98008890812658 12.158051136245302 M59.98008890812658 12.158051136245302 C59.77644972076913 12.397257313113382, 59.57281053341168 12.636463489981463, 59.16979594296866 13.10986736009567 M59.98008890812658 12.158051136245302 C59.77531409498178 12.398591283782144, 59.57053928183697 12.639131431318988, 59.16979594296866 13.10986736009567 M59.16979594296866 13.10986736009567 C58.93554110682924 13.351754711089344, 58.70128627068983 13.593642062083017, 58.30018473676799 14.007812326905684 M59.16979594296866 13.10986736009567 C58.92884636832486 13.358667578243374, 58.687896793681055 13.607467796391079, 58.30018473676799 14.007812326905684 M58.30018473676799 14.007812326905684 C57.931569735976886 14.342578717605694, 57.562954735185784 14.677345108305703, 57.37482870850189 14.848196188198111 M58.30018473676799 14.007812326905684 C58.073732576187716 14.213470187548847, 57.84728041560745 14.419128048192011, 57.37482870850189 14.848196188198111 M57.37482870850189 14.848196188198111 C57.139417336913674 15.03593049248002, 56.90400596532545 15.223664796761929, 56.39753034457871 15.627565626425152 M57.37482870850189 14.848196188198111 C57.00538304367471 15.14281927453575, 56.63593737884754 15.437442360873387, 56.39753034457871 15.627565626425152 M56.39753034457871 15.627565626425152 C56.11493697050782 15.824690530907011, 55.83234359643693 16.02181543538887, 55.37230557360571 16.34271804539089 M56.39753034457871 15.627565626425152 C56.09164896330179 15.840935236612353, 55.78576758202487 16.054304846799553, 55.37230557360571 16.34271804539089 M55.37230557360571 16.34271804539089 C54.962844772330946 16.590935589382408, 54.55338397105618 16.839153133373927, 54.30336726407678 16.990714730406093 M55.37230557360571 16.34271804539089 C54.992317745083064 16.57306890009766, 54.61232991656043 16.80341975480443, 54.30336726407678 16.990714730406093 M54.30336726407678 16.990714730406093 C54.07621038812527 17.109222327089075, 53.84905351217376 17.227729923772056, 53.19510791279239 17.56889292409717 M54.30336726407678 16.990714730406093 C53.91990778292047 17.190765296107823, 53.536448301764146 17.390815861809557, 53.19510791279239 17.56889292409717 M53.19510791279239 17.56889292409717 C52.84453565151 17.72408086481024, 52.49396339022761 17.879268805523314, 52.052081595147804 18.07487676824742 M53.19510791279239 17.56889292409717 C52.8848977667586 17.706213753689294, 52.574687620724816 17.84353458328142, 52.052081595147804 18.07487676824742 M52.052081595147804 18.07487676824742 C51.78861203388942 18.171836002276432, 51.52514247263103 18.268795236305444, 50.87898525146062 18.506587066708033 M52.052081595147804 18.07487676824742 C51.770871462879875 18.178364696399985, 51.48966133061195 18.28185262455255, 50.87898525146062 18.506587066708033 M50.87898525146062 18.506587066708033 C50.62965234902482 18.580587763375867, 50.38031944658902 18.6545884600437, 49.68063938623541 18.86224982926107 M50.87898525146062 18.506587066708033 C50.47679552829046 18.625954865407998, 50.0746058051203 18.745322664107967, 49.68063938623541 18.86224982926107 M49.68063938623541 18.86224982926107 C49.23717609209166 18.96346743228094, 48.793712797947904 19.064685035300812, 48.461968259676766 19.140403561325773 M49.68063938623541 18.86224982926107 C49.42345425424223 18.920950657348683, 49.166269122249055 18.979651485436296, 48.461968259676766 19.140403561325773 M48.461968259676766 19.140403561325773 C48.17024303593046 19.187567433138177, 47.878517812184164 19.234731304950582, 47.22797965284788 19.3399052695533 M48.461968259676766 19.140403561325773 C48.045291788924615 19.20776858174269, 47.628615318172464 19.275133602159606, 47.22797965284788 19.3399052695533 M47.22797965284788 19.3399052695533 C46.759784215734534 19.385071520284228, 46.29158877862118 19.430237771015157, 45.9837442896239 19.45993515863156 M47.22797965284788 19.3399052695533 C46.92529291465491 19.36910509515271, 46.62260617646194 19.398304920752125, 45.9837442896239 19.45993515863156 M45.9837442896239 19.45993515863156 C45.7101294555884 19.468709453800113, 45.436514621552895 19.477483748968663, 44.73437500000001 19.5 M45.9837442896239 19.45993515863156 C45.63073714964576 19.47125541052394, 45.27773000966763 19.482575662416327, 44.73437500000001 19.5 M44.73437500000001 19.5 C44.73437500000001 19.5, 44.734375 19.5, 44.734375 19.5 M44.73437500000001 19.5 C44.73437500000001 19.5, 44.734375 19.5, 44.734375 19.5 M44.734375 19.5 C12.949045322040277 19.5, -18.836284355919446 19.5, -44.73437499999999 19.5 M44.734375 19.5 C16.971227739979557 19.5, -10.791919520040885 19.5, -44.73437499999999 19.5 M-44.73437499999999 19.5 C-45.123404642464564 19.487524576566425, -45.51243428492914 19.475049153132847, -45.98374428962389 19.45993515863156 M-44.73437499999999 19.5 C-45.21285922110186 19.4846559423423, -45.691343442203724 19.4693118846846, -45.98374428962389 19.45993515863156 M-45.98374428962389 19.45993515863156 C-46.44802825613303 19.415146242765587, -46.912312222642164 19.370357326899615, -47.22797965284787 19.3399052695533 M-45.98374428962389 19.45993515863156 C-46.412662946363824 19.418557891666016, -46.841581603103755 19.37718062470047, -47.22797965284787 19.3399052695533 M-47.22797965284787 19.3399052695533 C-47.52094249962468 19.29254130844723, -47.8139053464015 19.245177347341166, -48.46196825967676 19.140403561325773 M-47.22797965284787 19.3399052695533 C-47.48397334925606 19.298518193978786, -47.73996704566425 19.257131118404278, -48.46196825967676 19.140403561325773 M-48.46196825967676 19.140403561325773 C-48.75298619937301 19.073980615659636, -49.04400413906927 19.0075576699935, -49.680639386235384 18.862249829261074 M-48.46196825967676 19.140403561325773 C-48.729075014149466 19.079438187651846, -48.996181768622165 19.01847281397792, -49.680639386235384 18.862249829261074 M-49.680639386235384 18.862249829261074 C-49.96608186432174 18.777532000083188, -50.25152434240809 18.6928141709053, -50.87898525146059 18.506587066708043 M-49.680639386235384 18.862249829261074 C-50.03467102907702 18.757175096015693, -50.388702671918644 18.652100362770316, -50.87898525146059 18.506587066708043 M-50.87898525146059 18.506587066708043 C-51.31482551408572 18.346193821198774, -51.75066577671085 18.185800575689502, -52.0520815951478 18.074876768247425 M-50.87898525146059 18.506587066708043 C-51.28017185282339 18.35894668887824, -51.681358454186196 18.211306311048443, -52.0520815951478 18.074876768247425 M-52.0520815951478 18.074876768247425 C-52.31358388294145 17.95911746263093, -52.57508617073511 17.84335815701443, -53.19510791279238 17.568892924097174 M-52.0520815951478 18.074876768247425 C-52.43109200312836 17.907100103578717, -52.810102411108936 17.73932343891001, -53.19510791279238 17.568892924097174 M-53.19510791279238 17.568892924097174 C-53.58193425088936 17.367085871286076, -53.96876058898634 17.165278818474977, -54.30336726407678 16.990714730406097 M-53.19510791279238 17.568892924097174 C-53.50830621009552 17.40549757300721, -53.82150450739866 17.24210222191725, -54.30336726407678 16.990714730406097 M-54.30336726407678 16.990714730406097 C-54.51718130982425 16.861099399363177, -54.73099535557172 16.73148406832026, -55.372305573605686 16.3427180453909 M-54.30336726407678 16.990714730406097 C-54.57347003129157 16.826976845620443, -54.84357279850636 16.663238960834793, -55.372305573605686 16.3427180453909 M-55.372305573605686 16.3427180453909 C-55.74147738756357 16.085199769164138, -56.11064920152145 15.827681492937376, -56.39753034457871 15.627565626425156 M-55.372305573605686 16.3427180453909 C-55.65144077106629 16.148005415210328, -55.930575968526895 15.953292785029758, -56.39753034457871 15.627565626425156 M-56.39753034457871 15.627565626425156 C-56.783153317772744 15.3200415671612, -57.168776290966775 15.012517507897245, -57.374828708501866 14.848196188198125 M-56.39753034457871 15.627565626425156 C-56.719212619317965 15.371032572645444, -57.04089489405722 15.114499518865731, -57.374828708501866 14.848196188198125 M-57.374828708501866 14.848196188198125 C-57.72166686304549 14.5332069530763, -58.06850501758912 14.218217717954474, -58.300184736767974 14.007812326905697 M-57.374828708501866 14.848196188198125 C-57.58494227004442 14.657376610905375, -57.79505583158697 14.466557033612627, -58.300184736767974 14.007812326905697 M-58.300184736767974 14.007812326905697 C-58.51020980523583 13.79094420033383, -58.720234873703696 13.574076073761962, -59.169795942968655 13.109867360095677 M-58.300184736767974 14.007812326905697 C-58.54707925687471 13.752873464478416, -58.793973776981446 13.497934602051135, -59.169795942968655 13.109867360095677 M-59.169795942968655 13.109867360095677 C-59.462064082314924 12.766552573091298, -59.754332221661194 12.423237786086919, -59.980088908126575 12.158051136245307 M-59.169795942968655 13.109867360095677 C-59.42075198079842 12.815080118257749, -59.671708018628195 12.520292876419818, -59.980088908126575 12.158051136245307 M-59.980088908126575 12.158051136245307 C-60.2653591146978 11.775815048090319, -60.550629321269035 11.39357895993533, -60.727733964640635 11.156274872382316 M-59.980088908126575 12.158051136245307 C-60.182771801940234 11.886474523326493, -60.385454695753886 11.614897910407679, -60.727733964640635 11.156274872382316 M-60.727733964640635 11.156274872382316 C-60.99998909463898 10.738017881965996, -61.27224422463731 10.319760891549677, -61.40965887860425 10.108655082055249 M-60.727733964640635 11.156274872382316 C-60.97272759447392 10.77989886695731, -61.21772122430721 10.403522861532304, -61.40965887860425 10.108655082055249 M-61.40965887860425 10.108655082055249 C-61.623451183606974 9.729045195704513, -61.837243488609694 9.349435309353776, -62.023061474273504 9.019496659696289 M-61.40965887860425 10.108655082055249 C-61.5804071892853 9.805474166299698, -61.75115549996636 9.502293250544145, -62.023061474273504 9.019496659696289 M-62.023061474273504 9.019496659696289 C-62.138410521542866 8.779971894967227, -62.25375956881223 8.540447130238164, -62.56542114880834 7.893275190886686 M-62.023061474273504 9.019496659696289 C-62.23875471612005 8.571605027905887, -62.45444795796659 8.123713396115486, -62.56542114880834 7.893275190886686 M-62.56542114880834 7.893275190886686 C-62.714962721047684 7.523904616265889, -62.864504293287034 7.154534041645092, -63.034509229970325 6.73461856121551 M-62.56542114880834 7.893275190886686 C-62.70368730359378 7.551755115372408, -62.841953458379216 7.210235039858129, -63.034509229970325 6.73461856121551 M-63.034509229970325 6.73461856121551 C-63.180739868692015 6.294195176074037, -63.326970507413705 5.853771790932564, -63.42839813421488 5.5482879393051325 M-63.034509229970325 6.73461856121551 C-63.17747198920478 6.304037508423698, -63.32043474843923 5.873456455631886, -63.42839813421488 5.5482879393051325 M-63.42839813421488 5.5482879393051325 C-63.50094087488747 5.271651028897868, -63.57348361556006 4.995014118490605, -63.74546928754556 4.339158212148136 M-63.42839813421488 5.5482879393051325 C-63.51361367938328 5.223324132927117, -63.598829224551686 4.898360326549101, -63.74546928754556 4.339158212148136 M-63.74546928754556 4.339158212148136 C-63.82490349143078 3.9312803636224682, -63.904337695315995 3.5234025150968007, -63.984419776581774 3.112197953150904 M-63.74546928754556 4.339158212148136 C-63.8098082956171 4.00879100375495, -63.87414730368864 3.6784237953617636, -63.984419776581774 3.112197953150904 M-63.984419776581774 3.112197953150904 C-64.03386702083863 2.7286948911575273, -64.0833142650955 2.345191829164151, -64.14426770250937 1.872449005199809 M-63.984419776581774 3.112197953150904 C-64.04782114862745 2.6204694315817307, -64.11122252067311 2.128740910012557, -64.14426770250937 1.872449005199809 M-64.14426770250937 1.872449005199809 C-64.16315112844708 1.5783244037927415, -64.18203455438481 1.284199802385674, -64.22435621591342 0.6250057626472781 M-64.14426770250937 1.872449005199809 C-64.17455516583615 1.4006973162848244, -64.20484262916293 0.9289456273698397, -64.22435621591342 0.6250057626472781 M-64.22435621591342 0.6250057626472781 C-64.22435621591342 0.20066969160906423, -64.22435621591342 -0.2236663794291497, -64.22435621591342 -0.6250057626472687 M-64.22435621591342 0.6250057626472781 C-64.22435621591342 0.1592402716132313, -64.22435621591342 -0.30652521942081556, -64.22435621591342 -0.6250057626472687 M-64.22435621591342 -0.6250057626472687 C-64.19315936174976 -1.1109219478936376, -64.16196250758611 -1.5968381331400066, -64.14426770250937 -1.8724490051997822 M-64.22435621591342 -0.6250057626472687 C-64.2050100042521 -0.9263386252533077, -64.18566379259077 -1.2276714878593467, -64.14426770250937 -1.8724490051997822 M-64.14426770250937 -1.8724490051997822 C-64.08788379793528 -2.3097514348150976, -64.03149989336119 -2.7470538644304128, -63.984419776581774 -3.112197953150895 M-64.14426770250937 -1.8724490051997822 C-64.0951096097069 -2.253709465612387, -64.04595151690441 -2.6349699260249917, -63.984419776581774 -3.112197953150895 M-63.984419776581774 -3.112197953150895 C-63.91477750583013 -3.4697962945614518, -63.84513523507849 -3.827394635972008, -63.74546928754556 -4.339158212148126 M-63.984419776581774 -3.112197953150895 C-63.920800683005865 -3.438868552763014, -63.85718158942995 -3.765539152375133, -63.74546928754556 -4.339158212148126 M-63.74546928754556 -4.339158212148126 C-63.62906794385566 -4.783046984299193, -63.512666600165765 -5.22693575645026, -63.42839813421489 -5.548287939305123 M-63.74546928754556 -4.339158212148126 C-63.665202380110244 -4.64525071809672, -63.584935472674935 -4.9513432240453135, -63.42839813421489 -5.548287939305123 M-63.42839813421489 -5.548287939305123 C-63.329594203524024 -5.845869636277481, -63.23079027283317 -6.14345133324984, -63.03450922997033 -6.734618561215485 M-63.42839813421489 -5.548287939305123 C-63.324856439034924 -5.860139028058401, -63.22131474385496 -6.1719901168116795, -63.03450922997033 -6.734618561215485 M-63.03450922997033 -6.734618561215485 C-62.92553773045798 -7.003780271831612, -62.816566230945625 -7.27294198244774, -62.56542114880834 -7.893275190886676 M-63.03450922997033 -6.734618561215485 C-62.891613977729314 -7.087572596942549, -62.7487187254883 -7.440526632669613, -62.56542114880834 -7.893275190886676 M-62.56542114880834 -7.893275190886676 C-62.41700967258044 -8.201454796770795, -62.26859819635254 -8.509634402654916, -62.023061474273504 -9.019496659696282 M-62.56542114880834 -7.893275190886676 C-62.41357933691124 -8.208577962185316, -62.26173752501414 -8.523880733483955, -62.023061474273504 -9.019496659696282 M-62.023061474273504 -9.019496659696282 C-61.85977244215539 -9.309432871029466, -61.69648341003728 -9.599369082362651, -61.40965887860425 -10.108655082055243 M-62.023061474273504 -9.019496659696282 C-61.88551346706538 -9.263727074740357, -61.74796545985726 -9.507957489784435, -61.40965887860425 -10.108655082055243 M-61.40965887860425 -10.108655082055243 C-61.21248386278786 -10.411568855254504, -61.01530884697148 -10.714482628453766, -60.72773396464064 -11.156274872382308 M-61.40965887860425 -10.108655082055243 C-61.26580211850141 -10.329657696522135, -61.12194535839857 -10.550660310989025, -60.72773396464064 -11.156274872382308 M-60.72773396464064 -11.156274872382308 C-60.5705616137891 -11.366871503827646, -60.413389262937564 -11.577468135272985, -59.98008890812659 -12.158051136245302 M-60.72773396464064 -11.156274872382308 C-60.46759441391074 -11.504838171159772, -60.207454863180836 -11.853401469937236, -59.98008890812659 -12.158051136245302 M-59.98008890812659 -12.158051136245302 C-59.66264255316566 -12.53094168799171, -59.34519619820473 -12.90383223973812, -59.16979594296866 -13.10986736009567 M-59.98008890812659 -12.158051136245302 C-59.67508906198205 -12.516321310509563, -59.37008921583752 -12.874591484773825, -59.16979594296866 -13.10986736009567 M-59.16979594296866 -13.10986736009567 C-58.88967609472047 -13.39911410167918, -58.60955624647227 -13.68836084326269, -58.300184736767996 -14.007812326905677 M-59.16979594296866 -13.10986736009567 C-58.86883415994039 -13.420635110494281, -58.56787237691211 -13.731402860892892, -58.300184736767996 -14.007812326905677 M-58.300184736767996 -14.007812326905677 C-58.10065244779457 -14.189022272416274, -57.90112015882114 -14.370232217926873, -57.37482870850189 -14.848196188198107 M-58.300184736767996 -14.007812326905677 C-58.015114758437235 -14.266705338687368, -57.73004478010647 -14.525598350469059, -57.37482870850189 -14.848196188198107 M-57.37482870850189 -14.848196188198107 C-57.00683401259181 -15.141662165436268, -56.63883931668173 -15.435128142674426, -56.39753034457872 -15.627565626425149 M-57.37482870850189 -14.848196188198107 C-57.16030124804138 -15.019276129099888, -56.94577378758087 -15.190356070001666, -56.39753034457872 -15.627565626425149 M-56.39753034457872 -15.627565626425149 C-56.03458826802491 -15.880738307519817, -55.671646191471105 -16.133910988614485, -55.372305573605715 -16.342718045390885 M-56.39753034457872 -15.627565626425149 C-56.13183125014015 -15.812905812777075, -55.866132155701585 -15.998245999129, -55.372305573605715 -16.342718045390885 M-55.372305573605715 -16.342718045390885 C-55.11235569444311 -16.500301189774312, -54.8524058152805 -16.65788433415774, -54.30336726407679 -16.99071473040609 M-55.372305573605715 -16.342718045390885 C-55.03584183860706 -16.546684338827447, -54.69937810360842 -16.750650632264012, -54.30336726407679 -16.99071473040609 M-54.30336726407679 -16.99071473040609 C-53.899452416233196 -17.20143684780629, -53.495537568389594 -17.412158965206487, -53.19510791279239 -17.56889292409717 M-54.30336726407679 -16.99071473040609 C-53.87458892457202 -17.214408115480094, -53.44581058506725 -17.438101500554097, -53.19510791279239 -17.56889292409717 M-53.19510791279239 -17.56889292409717 C-52.89913445043831 -17.699911596140502, -52.603160988084234 -17.830930268183838, -52.052081595147804 -18.07487676824742 M-53.19510791279239 -17.56889292409717 C-52.76325498117068 -17.76006140646404, -52.33140204954898 -17.95122988883091, -52.052081595147804 -18.07487676824742 M-52.052081595147804 -18.07487676824742 C-51.58867111412503 -18.24541610898333, -51.12526063310226 -18.415955449719238, -50.87898525146062 -18.506587066708033 M-52.052081595147804 -18.07487676824742 C-51.69413114651117 -18.206605842203377, -51.336180697874525 -18.338334916159337, -50.87898525146062 -18.506587066708033 M-50.87898525146062 -18.506587066708033 C-50.46805524561968 -18.628548935426004, -50.05712523977875 -18.75051080414398, -49.68063938623541 -18.862249829261067 M-50.87898525146062 -18.506587066708033 C-50.45239700008498 -18.633196220508896, -50.02580874870933 -18.759805374309764, -49.68063938623541 -18.862249829261067 M-49.68063938623541 -18.862249829261067 C-49.37324853346363 -18.93240978549345, -49.06585768069184 -19.002569741725836, -48.461968259676766 -19.140403561325773 M-49.68063938623541 -18.862249829261067 C-49.20267981147308 -18.97134098322286, -48.72472023671075 -19.080432137184655, -48.461968259676766 -19.140403561325773 M-48.461968259676766 -19.140403561325773 C-48.02701802697136 -19.21072294186015, -47.59206779426596 -19.28104232239453, -47.22797965284788 -19.3399052695533 M-48.461968259676766 -19.140403561325773 C-48.18548585653376 -19.185103092112875, -47.90900345339076 -19.229802622899975, -47.22797965284788 -19.3399052695533 M-47.22797965284788 -19.3399052695533 C-46.74730319690954 -19.386275549159652, -46.2666267409712 -19.43264582876601, -45.9837442896239 -19.45993515863156 M-47.22797965284788 -19.3399052695533 C-46.939076701664376 -19.367775389797337, -46.65017375048088 -19.395645510041376, -45.9837442896239 -19.45993515863156 M-45.9837442896239 -19.45993515863156 C-45.50605121867467 -19.475253845643746, -45.028358147725434 -19.49057253265593, -44.73437500000001 -19.5 M-45.9837442896239 -19.45993515863156 C-45.7308817836681 -19.468043967030553, -45.478019277712306 -19.476152775429544, -44.73437500000001 -19.5 M-44.73437500000001 -19.5 C-44.73437500000001 -19.5, -44.73437500000001 -19.5, -44.734375 -19.5 M-44.73437500000001 -19.5 C-44.73437500000001 -19.5, -44.73437500000001 -19.5, -44.734375 -19.5" stroke="#9370DB" stroke-width="1.3" fill="none" stroke-dasharray="0 0" style=""/></g><g class="label" style="" transform="translate(-51.859375, -12)"><rect/><foreignObject width="103.71875" height="24"><div xmlns="http://www.w3.org/1999/xhtml" style="display: table-cell; white-space: nowrap; line-height: 1.5; max-width: 200px; text-align: center;"><span class="nodeLabel"><p>GET /products</p></span></div></foreignObject></g></g><g class="node default" id="my-svg-flowchart-GOL-1" data-look="classic" transform="translate(311.00340270996094, 190.97265625)"><rect class="basic label-container" style="" x="-124.5546875" y="-27" width="249.109375" height="54"/><g class="label" style="" transform="translate(-94.5546875, -12)"><rect/><foreignObject width="189.109375" height="24"><div xmlns="http://www.w3.org/1999/xhtml" style="display: table-cell; white-space: nowrap; line-height: 1.5; max-width: 200px; text-align: center;"><span class="nodeLabel"><p>CachePort.getOrLoad(key)</p></span></div></foreignObject></g></g><g class="node default" id="my-svg-flowchart-HIT-3" data-look="classic" transform="translate(559.6674652099609, 190.97265625)"><polygon points="74.109375,0 148.21875,-74.109375 74.109375,-148.21875 0,-74.109375" class="label-container" transform="translate(-73.609375, 74.109375)"/><g class="label" style="" transform="translate(-47.109375, -12)"><rect/><foreignObject width="94.21875" height="24"><div xmlns="http://www.w3.org/1999/xhtml" style="display: table-cell; white-space: nowrap; line-height: 1.5; max-width: 200px; text-align: center;"><span class="nodeLabel"><p>hit no cache?</p></span></div></foreignObject></g></g><g class="node default ok" id="my-svg-flowchart-RET-5" data-look="classic" transform="translate(1972.511215209961, 123.97265625)"><rect class="basic label-container" style="fill:#d5f5e3 !important;stroke:#27ae60 !important" x="-113.140625" y="-27" width="226.28125" height="54"/><g class="label" style="color:#145a32 !important" transform="translate(-83.140625, -12)"><rect/><foreignObject width="166.28125" height="24"><div style="color: rgb(20, 90, 50) !important; display: table-cell; white-space: nowrap; line-height: 1.5; max-width: 200px; text-align: center;" xmlns="http://www.w3.org/1999/xhtml"><span style="color:#145a32 !important" class="nodeLabel"><p>retorna valor cacheado</p></span></div></foreignObject></g></g><g class="node default" id="my-svg-flowchart-SF-7" data-look="classic" transform="translate(817.1752777099609, 259.7734375)"><polygon points="102.6015625,0 205.203125,-102.6015625 102.6015625,-205.203125 0,-102.6015625" class="label-container" transform="translate(-102.1015625, 102.6015625)"/><g class="label" style="" transform="translate(-63.6015625, -24)"><rect/><foreignObject width="127.203125" height="48"><div xmlns="http://www.w3.org/1999/xhtml" style="display: table-cell; white-space: nowrap; line-height: 1.5; max-width: 200px; text-align: center;"><span class="nodeLabel"><p>loader já em voo?<br />(single-flight)</p></span></div></foreignObject></g></g><g class="node default" id="my-svg-flowchart-JOIN-9" data-look="classic" transform="translate(1654.823715209961, 125.80078125)"><rect class="basic label-container" style="" x="-128.609375" y="-39" width="257.21875" height="78"/><g class="label" style="" transform="translate(-98.609375, -24)"><rect/><foreignObject width="197.21875" height="48"><div xmlns="http://www.w3.org/1999/xhtml" style="display: table-cell; white-space: nowrap; line-height: 1.5; max-width: 200px; text-align: center;"><span class="nodeLabel"><p>aguarda a mesma execução<br />(anti-stampede)</p></span></div></foreignObject></g></g><g class="node default" id="my-svg-flowchart-LOAD-11" data-look="classic" transform="translate(1122.370590209961, 317.7734375)"><rect class="basic label-container" style="" x="-126.859375" y="-27" width="253.71875" height="54"/><g class="label" style="" transform="translate(-96.859375, -12)"><rect/><foreignObject width="193.71875" height="24"><div xmlns="http://www.w3.org/1999/xhtml" style="display: table-cell; white-space: nowrap; line-height: 1.5; max-width: 200px; text-align: center;"><span class="nodeLabel"><p>roda loader → repo (40ms)</p></span></div></foreignObject></g></g><g class="node default" id="my-svg-flowchart-OKL-13" data-look="classic" transform="translate(1387.019027709961, 317.7734375)"><polygon points="63.4609375,0 126.921875,-63.4609375 63.4609375,-126.921875 0,-63.4609375" class="label-container" transform="translate(-62.9609375, 63.4609375)"/><g class="label" style="" transform="translate(-36.4609375, -12)"><rect/><foreignObject width="72.921875" height="24"><div xmlns="http://www.w3.org/1999/xhtml" style="display: table-cell; white-space: nowrap; line-height: 1.5; max-width: 200px; text-align: center;"><span class="nodeLabel"><p>loader ok?</p></span></div></foreignObject></g></g><g class="node default ok" id="my-svg-flowchart-SET-15" data-look="classic" transform="translate(1654.823715209961, 241.80078125)"><rect class="basic label-container" style="fill:#d5f5e3 !important;stroke:#27ae60 !important" x="-110.109375" y="-27" width="220.21875" height="54"/><g class="label" style="color:#145a32 !important" transform="translate(-80.109375, -12)"><rect/><foreignObject width="160.21875" height="24"><div style="color: rgb(20, 90, 50) !important; display: table-cell; white-space: nowrap; line-height: 1.5; max-width: 200px; text-align: center;" xmlns="http://www.w3.org/1999/xhtml"><span style="color:#145a32 !important" class="nodeLabel"><p>grava com TTL + jitter</p></span></div></foreignObject></g></g><g class="node default" id="my-svg-flowchart-STALE-18" data-look="classic" transform="translate(1654.823715209961, 393.74609375)"><polygon points="74.9453125,0 149.890625,-74.9453125 74.9453125,-149.890625 0,-74.9453125" class="label-container" transform="translate(-74.4453125, 74.9453125)"/><g class="label" style="" transform="translate(-47.9453125, -12)"><rect/><foreignObject width="95.890625" height="24"><div xmlns="http://www.w3.org/1999/xhtml" style="display: table-cell; white-space: nowrap; line-height: 1.5; max-width: 200px; text-align: center;"><span class="nodeLabel"><p>staleOnError?</p></span></div></foreignObject></g></g><g class="node default" id="my-svg-flowchart-LAST-20" data-look="classic" transform="translate(1972.511215209961, 341.74609375)"><rect class="basic label-container" style="" x="-113.34375" y="-27" width="226.6875" height="54"/><g class="label" style="" transform="translate(-83.34375, -12)"><rect/><foreignObject width="166.6875" height="24"><div xmlns="http://www.w3.org/1999/xhtml" style="display: table-cell; white-space: nowrap; line-height: 1.5; max-width: 200px; text-align: center;"><span class="nodeLabel"><p>serve lastKnown (stale)</p></span></div></foreignObject></g></g><g class="node default" id="my-svg-flowchart-ERRO-22" data-look="classic" transform="translate(1972.511215209961, 445.74609375)"><rect class="basic label-container" style="" x="-76.0234375" y="-27" width="152.046875" height="54"/><g class="label" style="" transform="translate(-46.0234375, -12)"><rect/><foreignObject width="92.046875" height="24"><div xmlns="http://www.w3.org/1999/xhtml" style="display: table-cell; white-space: nowrap; line-height: 1.5; max-width: 200px; text-align: center;"><span class="nodeLabel"><p>propaga erro</p></span></div></foreignObject></g></g></g></g></g><defs><filter id="my-svg-drop-shadow" height="130%" width="130%"><feDropShadow dx="4" dy="4" stdDeviation="0" flood-opacity="0.06" flood-color="#000000"/></filter></defs><defs><filter id="my-svg-drop-shadow-small" height="150%" width="150%"><feDropShadow dx="2" dy="2" stdDeviation="0" flood-opacity="0.06" flood-color="#000000"/></filter></defs></svg>